<?xml version="1.0" encoding="utf-8"?>
<!-- Generator: Adobe Illustrator 16.0.3, SVG Export Plug-In . SVG Version: 6.00 Build 0)  -->
<!DOCTYPE svg PUBLIC "-//W3C//DTD SVG 1.1//EN" "http://www.w3.org/Graphics/SVG/1.1/DTD/svg11.dtd">
<svg version="1.1" id="Layer_1" xmlns="http://www.w3.org/2000/svg" xmlns:xlink="http://www.w3.org/1999/xlink" x="0px" y="0px"
	 width="28px" height="28px" viewBox="0 0 28 28" enable-background="new 0 0 28 28" xml:space="preserve">
<title>edit</title>
<path fill="#8AB83E" d="M13.875,20.5l1.813-1.813l-2.375-2.375L11.5,18.125V19H13v1.5H13.875z M20.75,9.25
	c-0.141-0.141-0.375-0.125-0.516,0.016l-5.469,5.468c-0.143,0.142-0.156,0.375-0.018,0.517s0.375,0.125,0.518-0.017l5.469-5.468
	C20.875,9.625,20.891,9.391,20.75,9.25z M22,18.531V21.5c0,2.484-2.016,4.5-4.5,4.5h-13C2.016,26,0,23.984,0,21.5v-13
	C0,6.016,2.016,4,4.5,4h13c0.625,0,1.25,0.125,1.828,0.391c0.141,0.063,0.25,0.203,0.281,0.359c0.031,0.172-0.018,0.328-0.143,0.453
	l-0.766,0.766c-0.143,0.141-0.328,0.187-0.5,0.125C17.968,6.031,17.732,6,17.499,6h-13c-1.375,0-2.5,1.125-2.5,2.5v13
	c0,1.375,1.125,2.5,2.5,2.5h13c1.375,0,2.5-1.125,2.5-2.5v-1.969c0-0.125,0.047-0.25,0.142-0.344l1-1
	c0.155-0.156,0.358-0.188,0.547-0.109C21.875,18.156,22,18.328,22,18.531z M20.5,7l4.5,4.5L14.5,22H10v-4.5L20.5,7z M27.438,9.063
	L26.001,10.5l-4.5-4.5l1.437-1.437c0.578-0.578,1.547-0.578,2.125,0l2.375,2.375C28.016,7.516,28.016,8.485,27.438,9.063z"/>
</svg>
