<?xml version="1.0" encoding="utf-8"?>
<!-- Generator: Adobe Illustrator 16.0.3, SVG Export Plug-In . SVG Version: 6.00 Build 0)  -->
<!DOCTYPE svg PUBLIC "-//W3C//DTD SVG 1.1//EN" "http://www.w3.org/Graphics/SVG/1.1/DTD/svg11.dtd">
<svg version="1.1" id="Layer_1" xmlns="http://www.w3.org/2000/svg" xmlns:xlink="http://www.w3.org/1999/xlink" x="0px" y="0px"
	 width="26px" height="28px" viewBox="0 0 26 28" enable-background="new 0 0 26 28" xml:space="preserve">
<title>search</title>
<path stroke="#C1C1C1" stroke-miterlimit="10" d="M18,13c0-3.859-3.141-7-7-7c-3.859,0-7,3.141-7,7c0,3.859,3.141,7,7,7
	C14.859,20,18,16.859,18,13z M26,26c0,1.094-0.906,2-2,2c-0.531,0-1.047-0.219-1.406-0.594l-5.359-5.344
	c-1.827,1.266-4.015,1.937-6.233,1.937c-6.078,0-11-4.922-11-11s4.922-11,11-11s11,4.922,11,11c0,2.22-0.672,4.405-1.937,6.233
	l5.358,5.359c0.359,0.359,0.578,0.875,0.578,1.406L26,26z"/>
</svg>
