<?xml version="1.0" encoding="utf-8"?>
<!-- Generator: Adobe Illustrator 16.0.3, SVG Export Plug-In . SVG Version: 6.00 Build 0)  -->
<!DOCTYPE svg PUBLIC "-//W3C//DTD SVG 1.1//EN" "http://www.w3.org/Graphics/SVG/1.1/DTD/svg11.dtd">
<svg version="1.1" id="Layer_1" xmlns="http://www.w3.org/2000/svg" xmlns:xlink="http://www.w3.org/1999/xlink" x="0px" y="0px"
	 width="24px" height="24px" viewBox="0 0 24 24" enable-background="new 0 0 24 24" xml:space="preserve">
<title>plus-circle</title>
<path fill="#FFFFFF" d="M12,1C5.9,1,1,5.9,1,12c0,6.1,4.9,11,11,11c6.1,0,11-4.9,11-11C23,5.9,18.1,1,12,1z M12,21c-5,0-9-4-9-9
	s4-9,9-9s9,4,9,9S17,21,12,21z"/>
<path fill="#FFFFFF" d="M16,11h-3V8c0-0.6-0.4-1-1-1c-0.6,0-1,0.4-1,1v3H8c-0.6,0-1,0.4-1,1c0,0.6,0.4,1,1,1h3v3c0,0.6,0.4,1,1,1
	c0.6,0,1-0.4,1-1v-3h3c0.6,0,1-0.4,1-1C17,11.4,16.6,11,16,11z"/>
</svg>
