<?xml version="1.0" encoding="utf-8"?>
<!-- Generator: Adobe Illustrator 16.0.3, SVG Export Plug-In . SVG Version: 6.00 Build 0)  -->
<!DOCTYPE svg PUBLIC "-//W3C//DTD SVG 1.1//EN" "http://www.w3.org/Graphics/SVG/1.1/DTD/svg11.dtd">
<svg version="1.1" id="Layer_1" xmlns="http://www.w3.org/2000/svg" xmlns:xlink="http://www.w3.org/1999/xlink" x="0px" y="0px"
	 width="11px" height="11px" viewBox="0 0 11 11" enable-background="new 0 0 11 11" xml:space="preserve">
<path fill="#B9BDBF" d="M6.113,5.094L9.97,1.237c0.29-0.292,0.29-0.728,0-1.019c-0.292-0.291-0.729-0.291-1.02,0L5.094,4.075
	L1.237,0.218c-0.292-0.291-0.728-0.291-1.019,0s-0.291,0.728,0,1.019l3.857,3.856L0.218,8.95c-0.291,0.291-0.291,0.728,0,1.02
	c0.146,0.146,0.291,0.218,0.509,0.218s0.364-0.072,0.51-0.218l3.856-3.856L8.95,9.97c0.146,0.146,0.364,0.218,0.51,0.218
	s0.363-0.072,0.51-0.218c0.29-0.292,0.29-0.729,0-1.02L6.113,5.094z"/>
</svg>
